<svg width="48" height="53" viewBox="0 0 48 53" fill="none" xmlns="http://www.w3.org/2000/svg">
<rect x="15" y="24" width="32" height="29" fill="#BE4157" fill-opacity="0.3"/>
<path fill-rule="evenodd" clip-rule="evenodd" d="M12.5419 15.9675C13.0337 16.1301 13.564 15.8635 13.7262 15.3717C15.198 10.9204 19.3388 7.92993 24.0303 7.92993C30.0131 7.92993 34.8807 12.7972 34.8807 18.7804C34.8807 23.4045 32.8095 26.1672 31.1454 28.3872C29.9347 30.0018 28.8892 31.3967 28.8892 33.0883C28.8892 33.1996 28.8877 33.3098 28.8851 33.4193H24.9678V31.2656C24.9678 30.7478 24.5481 30.3281 24.0303 30.3281C23.5125 30.3281 23.0928 30.7478 23.0928 31.2656V33.4193H19.1751C19.1725 33.3098 19.171 33.1996 19.171 33.0883C19.171 31.3964 18.1255 30.0018 16.9148 28.3868C15.6891 26.7517 14.3001 24.8983 13.6112 22.2649C13.4801 21.7639 12.9674 21.464 12.4668 21.5951C11.9662 21.7258 11.6663 22.2385 11.7974 22.7391C12.5792 25.7285 14.1514 27.8262 15.4148 29.5115C16.4658 30.9137 17.296 32.0211 17.296 33.0883C17.296 33.5372 17.3151 33.9752 17.3521 34.3931V42.323C17.3521 42.3483 17.3539 42.3728 17.3557 42.3973C17.3565 42.4032 17.3561 42.4094 17.3568 42.4153C17.3601 42.4501 17.3656 42.4838 17.3726 42.5175V42.5182C17.6981 44.0453 18.5316 45.434 19.7203 46.4282C20.9318 47.4419 22.4625 48 24.0303 48C25.598 48 27.1284 47.4419 28.3402 46.4282C29.5286 45.434 30.3624 44.0453 30.6876 42.5182C30.6876 42.5178 30.688 42.5175 30.688 42.5171C30.695 42.4838 30.7001 42.4501 30.7037 42.4153C30.7041 42.4094 30.7041 42.4032 30.7045 42.3973C30.7063 42.3724 30.7081 42.3479 30.7081 42.3226V34.3931C30.7451 33.9752 30.7645 33.5372 30.7645 33.0883C30.7645 32.0211 31.5947 30.9137 32.6458 29.5115C34.3801 27.1978 36.7557 24.0293 36.7557 18.7804C36.7557 11.7634 31.0469 6.05493 24.0303 6.05493C18.5283 6.05493 13.6724 9.5625 11.9461 14.7832C11.7835 15.2747 12.0504 15.8049 12.5419 15.9675V15.9675ZM24.0303 46.125C22.1242 46.125 20.4052 44.9722 19.5907 43.2601H28.4699C27.655 44.9722 25.936 46.125 24.0303 46.125ZM28.8335 41.3851H19.2271V39.2772H28.8335V41.3851ZM28.8335 37.4022H19.2271V35.2943H28.8335V37.4022Z" fill="white"/>
<path fill-rule="evenodd" clip-rule="evenodd" d="M24.0303 4.37292C24.5481 4.37292 24.9678 3.95325 24.9678 3.43542V0.9375C24.9678 0.419678 24.5481 0 24.0303 0C23.5125 0 23.0928 0.419678 23.0928 0.9375V3.43542C23.0928 3.95325 23.5125 4.37292 24.0303 4.37292Z" fill="white"/>
<path fill-rule="evenodd" clip-rule="evenodd" d="M6.1875 19.7179H8.68542C9.20325 19.7179 9.62292 19.2982 9.62292 18.7804C9.62292 18.2626 9.20325 17.8429 8.68542 17.8429H6.1875C5.66968 17.8429 5.25 18.2626 5.25 18.7804C5.25 19.2982 5.66968 19.7179 6.1875 19.7179Z" fill="white"/>
<path fill-rule="evenodd" clip-rule="evenodd" d="M28.323 20.6744C28.323 20.1566 27.9033 19.7369 27.3855 19.7369H20.6758C20.158 19.7369 19.7383 20.1566 19.7383 20.6744C19.7383 21.1923 20.158 21.6119 20.6758 21.6119H23.0931V23.7656C23.0931 24.2834 23.5128 24.7031 24.0306 24.7031C24.5485 24.7031 24.9681 24.2834 24.9681 23.7656V21.6119H27.3855C27.9033 21.6119 28.323 21.1923 28.323 20.6744Z" fill="white"/>
<path fill-rule="evenodd" clip-rule="evenodd" d="M12.5171 8.59277C12.7002 8.77588 12.94 8.86743 13.1799 8.86743C13.4198 8.86743 13.6596 8.77588 13.8427 8.59277C14.209 8.22656 14.209 7.63293 13.8427 7.26709L12.0765 5.50085C11.7103 5.13464 11.1167 5.13464 10.7505 5.50085C10.3846 5.8667 10.3846 6.46033 10.7505 6.82654L12.5171 8.59277Z" fill="white"/>
<path fill-rule="evenodd" clip-rule="evenodd" d="M10.7672 32.9813C11.007 32.9813 11.2469 32.8898 11.43 32.7067L13.1963 30.9404C13.5625 30.5742 13.5625 29.981 13.1963 29.6147C12.83 29.2485 12.2364 29.2485 11.8706 29.6147L10.104 31.381C9.73813 31.7472 9.73813 32.3408 10.104 32.7067C10.2871 32.8898 10.5269 32.9813 10.7672 32.9813Z" fill="white"/>
<path fill-rule="evenodd" clip-rule="evenodd" d="M34.8809 8.86742C35.1208 8.86742 35.3606 8.77586 35.5437 8.59276L37.31 6.82652C37.6762 6.46031 37.6762 5.86668 37.31 5.50047C36.9441 5.13426 36.3505 5.13463 35.9843 5.50047L34.2181 7.26671C33.8519 7.63292 33.8519 8.22655 34.2177 8.59276C34.4008 8.77586 34.641 8.86742 34.8809 8.86742V8.86742Z" fill="white"/>
<path fill-rule="evenodd" clip-rule="evenodd" d="M34.8645 29.6147C34.4983 29.9806 34.4983 30.5742 34.8645 30.9404L36.6307 32.7067C36.8138 32.8898 37.0537 32.9813 37.2936 32.9813C37.5334 32.9813 37.7733 32.8898 37.9564 32.7067C38.3226 32.3408 38.3226 31.7472 37.9564 31.381L36.1902 29.6147C35.824 29.2485 35.2303 29.2485 34.8645 29.6147Z" fill="white"/>
<path fill-rule="evenodd" clip-rule="evenodd" d="M39.3755 19.7179H41.8734C42.3912 19.7179 42.8109 19.2982 42.8109 18.7804C42.8109 18.2626 42.3912 17.8429 41.8734 17.8429H39.3755C38.8577 17.8429 38.438 18.2626 38.438 18.7804C38.438 19.2982 38.8577 19.7179 39.3755 19.7179Z" fill="white"/>
<path fill-rule="evenodd" clip-rule="evenodd" d="M24.0303 26.5781C23.5139 26.5781 23.0928 26.9993 23.0928 27.5156C23.0928 28.032 23.5139 28.4531 24.0303 28.4531C24.5466 28.4531 24.9678 28.032 24.9678 27.5156C24.9678 26.9993 24.5466 26.5781 24.0303 26.5781Z" fill="white"/>
<path fill-rule="evenodd" clip-rule="evenodd" d="M13.1797 18.7804C13.1797 18.264 12.7585 17.8429 12.2422 17.8429C11.7255 17.8429 11.3047 18.264 11.3047 18.7804C11.3047 19.2968 11.7255 19.7179 12.2422 19.7179C12.7585 19.7179 13.1797 19.2968 13.1797 18.7804Z" fill="white"/>
</svg>
