<svg width="49" height="49" viewBox="0 0 49 49" fill="none" xmlns="http://www.w3.org/2000/svg">
<rect x="17" y="20" width="32" height="29" fill="#BE4157" fill-opacity="0.3"/>
<g clip-path="url(#clip0)">
<path d="M30.5629 20.2288C30.8989 19.8928 30.8989 19.3469 30.5629 19.0112C30.2276 18.6745 29.6837 18.6745 29.3477 19.0112C29.0124 19.3469 29.0124 19.8928 29.3477 20.2288C29.6837 20.5655 30.2276 20.5655 30.5629 20.2288Z" fill="white"/>
<path d="M0.859376 44.1298H43.1407C43.4881 44.1298 43.8017 43.9203 43.9346 43.5984C44.0675 43.2765 43.994 42.9062 43.7483 42.66L1.46698 0.296333C1.22125 0.0497877 0.851655 -0.0235367 0.530396 0.109658C0.209473 0.242853 0 0.556668 0 0.905127V43.2688C0 43.7444 0.384705 44.1298 0.859376 44.1298V44.1298ZM1.71875 2.98377L8.63136 9.9099L6.80787 11.7359C6.47218 12.0723 6.47218 12.6175 6.80787 12.9539C7.14289 13.2899 7.68739 13.2906 8.02308 12.9539L9.84657 11.1275L13.4925 14.7809L11.6694 16.607C11.3337 16.9433 11.3337 17.4885 11.6691 17.8249C12.0044 18.1609 12.5489 18.1616 12.8846 17.8249L14.7081 15.9985L18.3537 19.6516L16.5309 21.4783C16.1952 21.8143 16.1952 22.3596 16.5309 22.6959C16.8666 23.0323 17.4104 23.0323 17.7461 22.6959L19.5693 20.8692L23.2152 24.5226L21.3924 26.3494C21.0567 26.6854 21.0567 27.2306 21.3924 27.5669C21.7281 27.9033 22.2719 27.9033 22.6076 27.5669L24.4308 25.7406L28.0768 29.3933L26.2539 31.2204C25.9182 31.5567 25.9182 32.102 26.2539 32.4383C26.5896 32.7743 27.1338 32.7743 27.4695 32.438L29.292 30.6113L32.9379 34.2644L31.1151 36.0914C30.7798 36.4278 30.7798 36.973 31.1155 37.309C31.4508 37.6453 31.9953 37.6453 32.331 37.309L34.1535 35.4819L41.0658 42.4077H1.71875V2.98377Z" fill="white"/>
<path d="M8.85761 17.9459C8.61188 17.6997 8.24228 17.626 7.92102 17.7592C7.6001 17.8924 7.39062 18.2066 7.39062 18.5547V35.8626C7.39062 36.3382 7.77533 36.7237 8.25 36.7237H25.5241C25.8719 36.7237 26.1851 36.5141 26.3184 36.1922C26.4513 35.8707 26.3775 35.5 26.1321 35.2538L8.85761 17.9459ZM9.10938 35.0019V20.6337L23.4495 35.0019H9.10938Z" fill="white"/>
<path d="M26.9171 17.7936C27.2528 18.1299 27.7966 18.1299 28.1327 17.7936C28.468 17.4576 28.468 16.9123 28.1327 16.576L24.486 12.9226C24.1507 12.5862 23.6065 12.5862 23.2708 12.9226C22.9351 13.2586 22.9351 13.8038 23.2708 14.1401L26.9171 17.7936Z" fill="white"/>
<path d="M13.0452 8.81884L37.1681 32.9886C38.1752 33.9984 39.8067 33.9984 40.8144 32.9886L43.2449 30.5538C44.2496 29.5471 44.2496 27.9081 43.2449 26.9L19.1222 2.73023C19.0279 2.63572 18.9128 2.56441 18.7862 2.52237L11.4943 0.0871903C11.1858 -0.0157329 10.845 0.0646548 10.6151 0.295391C10.3848 0.525791 10.3046 0.86685 10.4073 1.17629L12.8377 8.48249C12.88 8.6093 12.9508 8.72433 13.0452 8.81884V8.81884ZM42.029 28.1176C42.3643 28.4536 42.3643 29.0005 42.0293 29.3359L39.5992 31.771C39.2635 32.1074 38.7194 32.1077 38.3833 31.771L36.5213 29.9053L40.1672 26.2519L42.029 28.1176ZM38.952 25.0343L35.3057 28.6877L34.0905 27.4698L37.7368 23.817L38.952 25.0343ZM19.0833 5.12673L36.5213 22.5988L32.8753 26.2522L15.437 8.77983L19.0833 5.12673ZM17.7764 4.00029L14.3128 7.47041L12.5812 2.26539L17.7764 4.00029Z" fill="white"/>
</g>
<defs>
<clipPath id="clip0">
<rect width="44" height="44" fill="white"/>
</clipPath>
</defs>
</svg>
