<svg width="52" height="51" viewBox="0 0 52 51" fill="none" xmlns="http://www.w3.org/2000/svg">
<rect x="20" y="22" width="32" height="29" fill="#BE4157" fill-opacity="0.3"/>
<g clip-path="url(#clip0)">
<path d="M47.9075 26.2172C47.4765 21.8823 45.5399 17.7956 42.4541 14.7098C39.8171 12.0728 36.5894 10.3782 33.1932 9.62477V7.24273C34.5803 6.89763 35.6114 5.64202 35.6114 4.14959C35.6114 2.39193 34.1815 0.962036 32.4239 0.962036H25.6737C23.9161 0.962036 22.4862 2.39193 22.4862 4.14959C22.4862 5.64192 23.5173 6.89753 24.9043 7.24273V9.63142C21.5185 10.3881 18.3015 12.0803 15.672 14.7098C15.0965 15.2853 14.5659 15.889 14.0802 16.5163C14.0566 16.5146 14.0331 16.5128 14.0091 16.5128H7.32827C6.81058 16.5128 6.39076 16.9325 6.39076 17.4503C6.39076 17.9681 6.81058 18.3878 7.32827 18.3878H12.8045C12.1171 19.5386 11.5628 20.7472 11.141 21.9912H0.937515C0.419819 21.9912 0 22.411 0 22.9288C0 23.4465 0.419819 23.8663 0.937515 23.8663H10.6112C10.341 25.0523 10.1859 26.2594 10.1459 27.4698H6.00009C5.4824 27.4698 5.06258 27.8895 5.06258 28.4073C5.06258 28.9251 5.4824 29.3448 6.00009 29.3448H10.1758C10.2549 30.5583 10.45 31.7655 10.7612 32.9484H4.68757C4.16988 32.9484 3.75006 33.3681 3.75006 33.8859C3.75006 34.4037 4.16988 34.8234 4.68757 34.8234H11.3595C12.2792 37.2563 13.7165 39.5366 15.672 41.4921C18.7607 44.5808 22.8516 46.5179 27.191 46.9467C27.8103 47.0078 28.4301 47.0381 29.0491 47.0381C32.7074 47.0381 36.3193 45.9793 39.3841 43.9836C39.8179 43.701 39.9407 43.1202 39.6581 42.6863C39.3755 42.2524 38.7947 42.1297 38.3609 42.4123C31.6523 46.7808 22.6678 45.8363 16.9978 40.1663C10.345 33.5135 10.345 22.6887 16.9978 16.0358C23.6505 9.38308 34.4753 9.38308 41.1282 16.0358C46.7907 21.6984 47.7404 30.6752 43.3863 37.3805C43.1043 37.8147 43.2278 38.3954 43.6619 38.6773C44.0964 38.9593 44.6769 38.8358 44.9588 38.4016C47.2851 34.8189 48.3324 30.4918 47.9075 26.2172ZM24.3612 4.14968C24.3612 3.42592 24.95 2.83716 25.6737 2.83716H32.4239C33.1476 2.83716 33.7364 3.42592 33.7364 4.14968C33.7364 4.87344 33.1476 5.4622 32.4239 5.4622H32.2557H25.8418H25.6737C24.95 5.4622 24.3612 4.87335 24.3612 4.14968ZM26.7794 9.3091V7.33723H31.3181V9.30573C29.811 9.12648 28.2862 9.1276 26.7794 9.3091Z" fill="white"/>
<path d="M41.7915 39.8912C41.544 39.8912 41.3031 39.9915 41.1288 40.1659C40.9535 40.3403 40.854 40.5822 40.854 40.8287C40.854 41.0753 40.9535 41.3172 41.1288 41.4915C41.3031 41.6669 41.5441 41.7662 41.7915 41.7662C42.0381 41.7662 42.279 41.6669 42.4543 41.4915C42.6287 41.3172 42.729 41.0753 42.729 40.8287C42.729 40.5822 42.6288 40.3403 42.4543 40.1659C42.279 39.9915 42.038 39.8912 41.7915 39.8912Z" fill="white"/>
<path d="M29.0631 13.5573C21.0438 13.5573 14.5195 20.0814 14.5195 28.1008C14.5195 36.1202 21.0438 42.6444 29.0631 42.6444C37.0824 42.6444 43.6067 36.1202 43.6067 28.1008C43.6067 20.0814 37.0824 13.5573 29.0631 13.5573ZM29.0631 40.7694C22.0776 40.7694 16.3946 35.0863 16.3946 28.1008C16.3946 21.1154 22.0776 15.4323 29.0631 15.4323C36.0486 15.4323 41.7316 21.1154 41.7316 28.1008C41.7316 35.0863 36.0486 40.7694 29.0631 40.7694Z" fill="white"/>
<path d="M34.9935 20.8448L30.35 25.4882C29.9617 25.2962 29.5249 25.1877 29.0632 25.1877C28.6014 25.1877 28.1647 25.2962 27.7763 25.4882L25.6982 23.41C25.332 23.0439 24.7385 23.0439 24.3722 23.41C24.0061 23.7761 24.0061 24.3697 24.3722 24.7358L26.4504 26.814C26.2583 27.2023 26.1499 27.6391 26.1499 28.1008C26.1499 29.7072 27.4567 31.0141 29.0632 31.0141C30.6696 31.0141 31.9764 29.7072 31.9764 28.1008C31.9764 27.6391 31.8679 27.2023 31.6759 26.814L36.1831 22.3068L36.3193 22.1706C36.6854 21.8045 36.6854 21.2109 36.3193 20.8448C35.9532 20.4787 35.3598 20.4787 34.9935 20.8448ZM29.0632 29.1391C28.4907 29.1391 28.025 28.6734 28.025 28.1009C28.025 27.5285 28.4907 27.0627 29.0632 27.0627C29.6356 27.0627 30.1014 27.5285 30.1014 28.1009C30.1014 28.6734 29.6356 29.1391 29.0632 29.1391Z" fill="white"/>
<path d="M39.0869 27.1748H38.2183C37.7006 27.1748 37.2808 27.5945 37.2808 28.1123C37.2808 28.6301 37.7006 29.0498 38.2183 29.0498H39.0869C39.6045 29.0498 40.0244 28.6301 40.0244 28.1123C40.0244 27.5945 39.6045 27.1748 39.0869 27.1748Z" fill="white"/>
<path d="M19.9076 27.1519H19.0391C18.5214 27.1519 18.1016 27.5716 18.1016 28.0894C18.1016 28.6071 18.5214 29.0269 19.0391 29.0269H19.9076C20.4252 29.0269 20.8451 28.6071 20.8451 28.0894C20.8451 27.5716 20.4252 27.1519 19.9076 27.1519Z" fill="white"/>
<path d="M29.0742 19.883C29.5919 19.883 30.0117 19.4633 30.0117 18.9455V18.077C30.0117 17.5592 29.5919 17.1395 29.0742 17.1395C28.5565 17.1395 28.1367 17.5592 28.1367 18.077V18.9455C28.1367 19.4633 28.5565 19.883 29.0742 19.883Z" fill="white"/>
<path d="M29.0513 36.3187C28.5336 36.3187 28.1138 36.7384 28.1138 37.2562V38.1247C28.1138 38.6425 28.5336 39.0622 29.0513 39.0622C29.569 39.0622 29.9888 38.6425 29.9888 38.1247V37.2562C29.9888 36.7384 29.569 36.3187 29.0513 36.3187Z" fill="white"/>
<path d="M0.9375 32.948C0.690937 32.948 0.449063 33.0483 0.274688 33.2227C0.100313 33.3971 0 33.6389 0 33.8855C0 34.133 0.100219 34.3739 0.274688 34.5483C0.449156 34.7227 0.690937 34.823 0.9375 34.823C1.18406 34.823 1.42594 34.7227 1.60022 34.5483C1.77459 34.3739 1.875 34.1321 1.875 33.8855C1.875 33.6389 1.77469 33.3971 1.60022 33.2227C1.42594 33.0483 1.18406 32.948 0.9375 32.948Z" fill="white"/>
</g>
<defs>
<clipPath id="clip0">
<rect width="48" height="48" fill="white"/>
</clipPath>
</defs>
</svg>
